<svg xmlns="http://www.w3.org/2000/svg" xmlns:xlink="http://www.w3.org/1999/xlink" width="150" height="150" viewBox="0 0 150 150"><defs><path id="na7ma" d="M1092 941a75 75 0 1 1-150 0 75 75 0 0 1 150 0zm-12.82 6.25h-5.93a6.25 6.25 0 1 1 0-12.5h5.93a62.51 62.51 0 0 0-55.93-55.93v5.93a6.25 6.25 0 1 1-12.5 0v-5.93a62.51 62.51 0 0 0-55.93 55.93h5.93a6.25 6.25 0 1 1 0 12.5h-5.93a62.51 62.51 0 0 0 55.93 55.94v-5.94a6.25 6.25 0 1 1 12.5 0v5.94a62.5 62.5 0 0 0 55.93-55.94zm-101.95-1.84l70.7-35.35-35.35 70.71-8.84-26.51zm56.73-21.38l-40.45 20.23 12.21 4.06 2.97 1 .98 2.96 4.07 12.2z"/></defs><g><g transform="translate(-942 -866)"><use fill="#e3d5b8" xlink:href="#na7ma"/></g></g></svg>