<svg xmlns="http://www.w3.org/2000/svg" xmlns:xlink="http://www.w3.org/1999/xlink" width="163" height="142" viewBox="0 0 163 142"><defs><path id="92vka" d="M253.85 942.23l-67.9 66.8-67.9-66.8a43.57 43.57 0 0 1 0-62.34 45.34 45.34 0 0 1 63.37 0 44.86 44.86 0 0 1 4.53 5.29 44.87 44.87 0 0 1 4.53-5.3 45.34 45.34 0 0 1 63.37 0 43.58 43.58 0 0 1 0 62.35zm-9.05-53.43a32.4 32.4 0 0 0-45.27 0l-13.58 13.35-13.58-13.35a32.4 32.4 0 0 0-45.27 0 31.14 31.14 0 0 0 0 44.53l58.85 57.89 58.85-57.9a31.14 31.14 0 0 0 0-44.52zM240 913.55c0 5.51-2.27 10.5-5.94 14.11l-4.78-4.7a13.14 13.14 0 0 0 3.96-9.4c0-7.36-6.06-13.32-13.53-13.32v-6.65c11.2 0 20.3 8.94 20.3 19.96z"/></defs><g><g transform="translate(-104 -867)"><use fill="#e3d5b8" xlink:href="#92vka"/></g></g></svg>