<svg xmlns="http://www.w3.org/2000/svg" xmlns:xlink="http://www.w3.org/1999/xlink" width="116" height="155" viewBox="0 0 116 155"><defs><path id="34fba" d="M804 918.12c0 6.81-1.23 13.31-3.37 19.38l-15.96 32.3c-1.35 2.7-3.7 5.29-6.52 6.1 0 .12.07.22.07.35v6.46a6.45 6.45 0 0 1-6.44 6.46v6.45a6.45 6.45 0 0 1-6.45 6.46v6.46a6.45 6.45 0 0 1-6.44 6.46H733.1a6.45 6.45 0 0 1-6.44-6.46v-6.46a6.45 6.45 0 0 1-6.45-6.46v-6.45a6.45 6.45 0 0 1-6.44-6.46v-6.46c0-.11.05-.2.06-.31-2.76-.74-4.79-3.31-6.5-6.15l-15.97-32.29a57.93 57.93 0 0 1-3.37-19.38c0-32.1 25.97-58.12 58-58.12s58 26.02 58 58.12zm-45.11 83.96H733.1v6.46h25.78zm6.44-12.91h-38.66v6.45h38.66zm6.45-12.92h-51.56v6.46h51.56zm19.33-58.13c0-24.97-20.2-45.2-45.11-45.2a45.15 45.15 0 0 0-40.71 64.58l13.06 25.83h55.44l12.92-25.83a45.08 45.08 0 0 0 4.4-19.38zm-6.44 0h-6.45A32.26 32.26 0 0 0 746 885.83v-6.46a38.71 38.71 0 0 1 38.67 38.75z"/></defs><g><g transform="translate(-688 -860)"><use fill="#e3d5b8" xlink:href="#34fba"/></g></g></svg>