<svg xmlns="http://www.w3.org/2000/svg" xmlns:xlink="http://www.w3.org/1999/xlink" width="137" height="137" viewBox="0 0 137 137"><defs><path id="ac6ia" d="M532.63 988.5a11.41 11.41 0 1 1-16.14 16.13l-49-49-47.17 47.16a11.41 11.41 0 1 1-16.14-16.14l51.2-51.2-53.56-53.56L399 871l10.9 2.82 53.55 53.56 15.08-15.07a28.5 28.5 0 0 1 6.37-30.59l4.03-4.03a22.83 22.83 0 0 1 32.29 0l-4.04 4.03-16.14 16.14a5.7 5.7 0 1 0 8.07 8.08l16.14-16.15 4.04-4.03a22.83 22.83 0 0 1 0 32.29l-4.04 4.03a28.5 28.5 0 0 1-30.58 6.37l-11.04 11.04zm-43.7-70.45a22.84 22.84 0 0 0 32.29 0l4.03-4.04a17.07 17.07 0 0 0 3.3-19.44l-15.4 15.4A11.41 11.41 0 1 1 497 893.83l15.4-15.4a17.06 17.06 0 0 0-19.44 3.3l-4.04 4.03a22.84 22.84 0 0 0 0 32.29zm-21.44 13.37l8.07 8.07 13.78-13.78a29.22 29.22 0 0 1-4.44-3.63 29.2 29.2 0 0 1-3.63-4.44zm-43.13 59.27l-8.07-8.07-8.07 8.07a5.7 5.7 0 1 0 8.07 8.07zm4.04-4.04l39.09-39.09-8.07-8.07-39.1 39.1zm80.02 1.84l8.07-8.07-36.32-36.32-8.07 8.07zm20.18 4.04l-8.07-8.07-8.07 8.07 8.07 8.07a5.7 5.7 0 1 0 8.07-8.07z"/></defs><g><g transform="translate(-399 -871)"><use fill="#e3d5b8" xlink:href="#ac6ia"/></g></g></svg>